<svg fill="#000000" xmlns="http://www.w3.org/2000/svg"  viewBox="0 0 50 50" width="24px" height="24px"><path d="M 18.15625 2 C 15.703125 2 13.804688 3.371094 12.65625 5.125 C 11.507813 6.878906 11 9.019531 11 10.96875 C 11 12.765625 11.640625 15.09375 12.78125 17.125 C 13.921875 19.15625 15.648438 21 17.96875 21 C 19.1875 21 20.269531 20.585938 21.09375 19.875 C 21.917969 19.164063 22.488281 18.195313 22.90625 17.125 C 23.746094 14.988281 24 12.335938 24 9.78125 C 24 7.78125 23.34375 5.898438 22.3125 4.46875 C 21.28125 3.039063 19.828125 2 18.15625 2 Z M 33.75 2 C 31.179688 2 29.179688 3.386719 27.90625 5.125 C 26.632813 6.863281 26 8.941406 26 10.75 C 26 12.4375 26.316406 15.070313 27.1875 17.40625 C 27.621094 18.574219 28.179688 19.667969 29 20.53125 C 29.820313 21.394531 30.949219 22 32.25 22 C 34.835938 22 36.867188 20.359375 38.125 18.1875 C 39.382813 16.015625 40 13.257813 40 10.5625 C 40 5.066406 36.609375 2 33.75 2 Z M 18.15625 4 C 18.957031 4 19.914063 4.582031 20.6875 5.65625 C 21.460938 6.730469 22 8.222656 22 9.78125 C 22 12.199219 21.738281 14.683594 21.0625 16.40625 C 20.722656 17.269531 20.277344 17.917969 19.78125 18.34375 C 19.285156 18.769531 18.75 19 17.96875 19 C 16.785156 19 15.5 17.847656 14.53125 16.125 C 13.5625 14.402344 13 12.226563 13 10.96875 C 13 9.386719 13.464844 7.5625 14.34375 6.21875 C 15.222656 4.875 16.40625 4 18.15625 4 Z M 33.75 4 C 34.980469 4 38 5.90625 38 10.5625 C 38 12.945313 37.433594 15.414063 36.40625 17.1875 C 35.378906 18.960938 34.019531 20 32.25 20 C 31.539063 20 31.011719 19.726563 30.46875 19.15625 C 29.925781 18.585938 29.4375 17.691406 29.0625 16.6875 C 28.3125 14.679688 28 12.175781 28 10.75 C 28 9.4375 28.535156 7.671875 29.53125 6.3125 C 30.527344 4.953125 31.875 4 33.75 4 Z M 6.71875 18 C 4.894531 18 3.320313 19.296875 2.09375 21.0625 C 0.867188 22.828125 0 25.179688 0 27.65625 C 0 29.378906 0.628906 31.324219 1.71875 32.96875 C 2.808594 34.613281 4.46875 36 6.5625 36 C 8.632813 36 10.277344 34.539063 11.34375 32.625 C 12.410156 30.710938 13 28.234375 13 25.6875 C 13 23.714844 12.257813 21.855469 11.125 20.4375 C 9.992188 19.019531 8.429688 18 6.71875 18 Z M 45 18 C 43.773438 18.058594 42.550781 18.617188 41.46875 19.5 C 40.027344 20.679688 38.710938 22.453125 37.5 24.71875 C 36.0625 27.414063 35.683594 29.894531 36.21875 31.90625 C 36.753906 33.917969 38.28125 35.414063 40.25 35.875 C 42.222656 36.339844 44.175781 35.515625 45.71875 34.09375 C 47.261719 32.671875 48.515625 30.640625 49.40625 28.28125 C 50.160156 26.277344 50.179688 24.019531 49.65625 22.125 C 49.132813 20.230469 48.023438 18.550781 46.21875 18.125 C 45.8125 18.03125 45.410156 17.980469 45 18 Z M 6.71875 20 C 7.574219 20 8.667969 20.609375 9.53125 21.6875 C 10.394531 22.765625 11 24.242188 11 25.6875 C 11 27.921875 10.449219 30.117188 9.59375 31.65625 C 8.738281 33.195313 7.695313 34 6.5625 34 C 5.359375 34 4.238281 33.175781 3.375 31.875 C 2.511719 30.574219 2 28.867188 2 27.65625 C 2 25.648438 2.71875 23.65625 3.71875 22.21875 C 4.71875 20.78125 5.976563 20 6.71875 20 Z M 45.0625 20 C 45.296875 19.988281 45.519531 20.007813 45.75 20.0625 C 46.496094 20.238281 47.3125 21.175781 47.71875 22.65625 C 48.125 24.136719 48.109375 26.019531 47.53125 27.5625 C 46.726563 29.691406 45.570313 31.496094 44.34375 32.625 C 43.117188 33.753906 41.929688 34.191406 40.71875 33.90625 C 39.410156 33.601563 38.523438 32.785156 38.15625 31.40625 C 37.789063 30.027344 38.015625 28.027344 39.28125 25.65625 C 40.410156 23.542969 41.617188 21.988281 42.75 21.0625 C 43.601563 20.367188 44.355469 20.035156 45.0625 20 Z M 24.21875 27 C 22.046875 27 20.363281 28.148438 18.9375 29.59375 C 17.511719 31.039063 16.234375 32.800781 14.65625 34.4375 C 13.105469 36.046875 11.5625 37.011719 10.28125 38.1875 C 9 39.363281 8 40.914063 8 43.15625 C 8 44.441406 8.445313 45.875 9.5 47.03125 C 10.554688 48.1875 12.234375 49 14.40625 49 C 16.671875 49 18.371094 48.496094 19.90625 48.03125 C 21.441406 47.566406 22.796875 47.15625 24.5625 47.15625 C 28.199219 47.15625 31.191406 48.4375 34.90625 48.4375 C 37.097656 48.4375 38.855469 48.042969 40.125 47.0625 C 41.394531 46.082031 42 44.496094 42 42.6875 C 42 41.472656 41.480469 40.46875 40.75 39.75 C 40.019531 39.03125 39.136719 38.550781 38.21875 38.125 C 36.386719 37.273438 34.484375 36.554688 33.4375 35.28125 C 32.03125 33.570313 30.964844 31.636719 29.65625 30 C 28.347656 28.363281 26.632813 27 24.21875 27 Z M 24.21875 29 C 25.9375 29 26.953125 29.824219 28.09375 31.25 C 29.234375 32.675781 30.3125 34.664063 31.875 36.5625 C 33.402344 38.417969 35.679688 39.148438 37.375 39.9375 C 38.222656 40.332031 38.910156 40.730469 39.34375 41.15625 C 39.777344 41.582031 40 41.96875 40 42.6875 C 40 44.089844 39.648438 44.894531 38.90625 45.46875 C 38.164063 46.042969 36.851563 46.4375 34.90625 46.4375 C 31.679688 46.4375 28.640625 45.15625 24.5625 45.15625 C 22.476563 45.15625 20.867188 45.664063 19.34375 46.125 C 17.820313 46.585938 16.382813 47 14.40625 47 C 12.710938 47 11.683594 46.4375 11 45.6875 C 10.316406 44.9375 10 43.949219 10 43.15625 C 10 41.433594 10.546875 40.675781 11.625 39.6875 C 12.703125 38.699219 14.367188 37.632813 16.09375 35.84375 C 17.792969 34.082031 19.082031 32.277344 20.34375 31 C 21.605469 29.722656 22.726563 29 24.21875 29 Z"/></svg>