<svg fill="#000000" xmlns="http://www.w3.org/2000/svg"  viewBox="0 0 16 16" width="24px" height="24px"><path d="M 7 1 C 4.2447116 1 2 3.2447116 2 6 C 2 8.7552884 4.2447116 11 7 11 C 7.4002062 11 7.7583276 10.90878 8.1132812 10.820312 L 9.2929688 12 L 10 12 L 10 13 L 11 13 L 11 14 L 15 14 L 15 10.292969 L 11.820312 7.1132812 C 11.908776 6.7583276 12 6.4002062 12 6 C 12 3.2447116 9.7552884 1 7 1 z M 7 2 C 9.2147116 2 11 3.7852884 11 6 C 11 6.3866984 10.92478 6.7647845 10.810547 7.1464844 L 10.724609 7.4316406 L 14 10.707031 L 14 13 L 12 13 L 12 12 L 11 12 L 11 11 L 9.7070312 11 L 8.4316406 9.7246094 L 8.1464844 9.8105469 C 7.7647845 9.9247782 7.3866984 10 7 10 C 4.7852884 10 3 8.2147116 3 6 C 3 3.7852884 4.7852884 2 7 2 z M 6.5 4 C 5.6774952 4 5 4.6774952 5 5.5 C 5 6.3225048 5.6774952 7 6.5 7 C 7.3225048 7 8 6.3225048 8 5.5 C 8 4.6774952 7.3225048 4 6.5 4 z M 6.5 5 C 6.7820647 5 7 5.2179353 7 5.5 C 7 5.7820647 6.7820647 6 6.5 6 C 6.2179353 6 6 5.7820647 6 5.5 C 6 5.2179353 6.2179353 5 6.5 5 z"/></svg>