<svg viewBox="0 0 32 32" xmlns="http://www.w3.org/2000/svg" aria-hidden="true" style="display:block;height:24px;width:24px;fill:currentcolor"><path d="m2 10 3.003.02c4.25.244 7.93 2.223 10.992 5.888l.574.7c1.701 2.015 2.9 2.37 6.78 2.391L30 19v2h-1.653l-.836 5.019a4.765 4.765 0 0 1-4.483 3.976L11.103 30a4.765 4.765 0 0 1-4.63-3.64L3.676 12H2v-2zm22 15c-.503 0-.98.175-1.329.491a3.977 3.977 0 0 1-2.67 1.009 3.977 3.977 0 0 1-2.672-1.009A1.978 1.978 0 0 0 16 25c-.503 0-.98.175-1.329.491a3.978 3.978 0 0 1-2.67 1.009 3.978 3.978 0 0 1-2.672-1.008 1.942 1.942 0 0 0-1.084-.478l.144.749a2.765 2.765 0 0 0 2.543 2.232L22.81 28a2.765 2.765 0 0 0 2.693-2.138l.037-.192a3.778 3.778 0 0 1-.212-.179A1.978 1.978 0 0 0 24 25zM5.73 12.094l2.122 10.91L8 23c.912 0 1.798.3 2.5.863l.171.146c.35.316.826.49 1.33.491.502 0 .979-.175 1.328-.492A3.974 3.974 0 0 1 16 23a3.97 3.97 0 0 1 2.671 1.009c.35.316.826.49 1.33.491.502 0 .979-.175 1.328-.491A3.975 3.975 0 0 1 23.999 23a4.05 4.05 0 0 1 1.908.472L26.32 21l-3.679-.01c-3.909-.08-5.546-.672-7.576-3.065l-.615-.748c-2.363-2.823-5.07-4.48-8.155-5.002l-.563-.081zM25 8a4 4 0 1 1 0 8 4 4 0 0 1 0-8zm0 2a2 2 0 1 0 0 4 2 2 0 0 0 0-4zm-9-8a3 3 0 1 1 0 6 3 3 0 0 1 0-6zm0 2a1 1 0 1 0 0 2 1 1 0 0 0 0-2z"/></svg>