<svg viewBox="0 0 32 32" xmlns="http://www.w3.org/2000/svg" aria-hidden="true" style="display:block;height:24px;width:24px;fill:currentcolor"><path d="M21.537.799c7.188 1.926 11.495 9.237 9.743 16.43l-.079.308-.259.966-12.352-3.31-3.857 14.14H12.66l3.997-14.658L4.54 11.429l.259-.966C6.753 3.173 14.246-1.155 21.537.799zM5.667 21a4 4 0 1 1 0 8 4 4 0 0 1 0-8zm0 2a2 2 0 1 0 0 4 2 2 0 0 0 0-4zM25.326 4.916l.056.174c.741 2.343.772 5.378-.01 8.503l-.084.324-.25.933 4.448 1.192.034-.19c.682-4.212-1.008-8.363-4.194-10.936zm-3.457-1.742-2.753 10.089 3.99 1.069.25-.933c1.234-4.606.441-8.825-1.487-10.225zm-1.951-.45c-2.277.38-4.896 3.452-6.137 7.782l-.084.305-.251.933 3.738 1.002zm-3.664-.263-.22.036a11.678 11.678 0 0 0-8.81 7.03l-.126.317-.067.181 4.484 1.202.25-.934c.892-3.328 2.544-6.128 4.489-7.832z"/></svg>