<svg fill="#000000" xmlns="http://www.w3.org/2000/svg"  viewBox="0 0 50 50" width="24px" height="24px"><path d="M 25.943359 5 C 25.166696 5 24.402689 5.1818195 23.708984 5.5292969 L 17.105469 8.8300781 C 16.430588 9.1677351 16 9.8627097 16 10.617188 L 16 11 L 11 11 C 6.0414839 11 2 15.041484 2 20 C 2 24.958516 6.0414839 29 11 29 L 39 29 C 42.877484 29 46 32.122516 46 36 C 46 39.877484 42.877484 43 39 43 L 2 43 L 2 45 L 39 45 C 43.958516 45 48 40.958516 48 36 C 48 31.041484 43.958516 27 39 27 L 11 27 C 7.1225161 27 4 23.877484 4 20 C 4 16.122516 7.1225161 13 11 13 L 16 13 L 16 13.382812 C 16 14.138243 16.430297 14.831321 17.103516 15.169922 L 17.103516 15.171875 L 23.708984 18.472656 C 24.402468 18.818104 25.166696 19 25.943359 19 L 37.375 19 C 38.263574 19 39 18.263574 39 17.375 L 39 15 L 45 15 C 46.64497 15 48 13.64497 48 12 C 48 10.35503 46.64497 9 45 9 L 39 9 L 39 6.6113281 C 39 5.7322905 38.267709 5 37.388672 5 L 25.943359 5 z M 25.943359 7 L 31 7 L 31 16.992188 L 33 16.992188 L 33 7 L 37 7 L 37 17 L 25.943359 17 C 25.478022 17 25.02008 16.892099 24.601562 16.683594 L 18.001953 13.382812 L 18 13.382812 L 18 13 L 18 11 L 18 10.619141 L 24.603516 7.3164062 C 25.019811 7.1078836 25.478022 7 25.943359 7 z M 39 11 L 45 11 C 45.56503 11 46 11.43497 46 12 C 46 12.56503 45.56503 13 45 13 L 39 13 L 39 11 z"/></svg>