<svg viewBox="0 0 32 32" xmlns="http://www.w3.org/2000/svg" aria-hidden="true" style="display:block;height:24px;width:24px;fill:currentcolor"><path d="M24 0v6h-4.302a7.063 7.063 0 0 0 1.527 3.778l.191.227-1.499 1.324a9.045 9.045 0 0 1-2.204-5.074c-.822.371-1.315 1.139-1.374 2.196l-.006.216v4.243l4.148 4.022a5 5 0 0 1 1.494 3.085l.019.252.006.252v8.629c0 1.515-1.127 2.78-2.643 2.976l-.176.018-.213.006-12-.129a3 3 0 0 1-2.963-2.825L4 29.021v-8.297a5 5 0 0 1 1.384-3.454l.183-.18L10 12.901V8.848L5.989 5.454l.017-.703A5 5 0 0 1 10.78.005L11 0zm-5.032 25.686a8.976 8.976 0 0 1-6.126-2.408l-.236-.228A6.966 6.966 0 0 0 7.659 21c-.563 0-1.12.066-1.659.197v7.824a1 1 0 0 0 .874.992l.115.008 11.958.13.129-.004a1 1 0 0 0 .917-.878L20 29.15v-3.523a9.05 9.05 0 0 1-1.032.059zM17.666 2H11c-1.42 0-2.618.99-2.923 2.308l-.035.174-.012.08 3.669 3.104h2.723l.019-.098c.351-1.728 1.542-2.979 3.225-3.407zM30 4a1 1 0 1 1 0 2 1 1 0 0 1 0-2zm-3-2a1 1 0 1 1 0 2 1 1 0 0 1 0-2zm-5 0h-2.334v2H22zm8-2a1 1 0 1 1 0 2 1 1 0 0 1 0-2zM20 20.521a3 3 0 0 0-.771-2.008l-.14-.145-4.756-4.611V9.666H12v4.098l-5.06 4.78a3 3 0 0 0-.446.53c.386-.05.774-.074 1.165-.074 2.262 0 4.444.844 6.124 2.407l.237.229A6.979 6.979 0 0 0 20 23.61z"/></svg>