<svg viewBox="0 0 32 32" xmlns="http://www.w3.org/2000/svg" aria-hidden="true" style="display:block;height:24px;width:24px;fill:currentcolor"><path d="M16.844 27.156v-3.398l-.261.091c-.986.322-2.03.512-3.113.55l-.407.007-.293-.004C6.737 24.25 1.875 19.388 1.722 13.355l-.003-.293.003-.292C1.875 6.737 6.737 1.875 12.77 1.722l.293-.003.292.003c6.033.153 10.895 5.015 11.047 11.048l.004.292-.006.392a11.297 11.297 0 0 1-.892 4.04l-.133.297 7.906 7.907v5.583h-5.583l-4.125-4.125zM10.313 7.22a3.094 3.094 0 1 1 0 6.187 3.094 3.094 0 0 1 0-6.187zm0 2.062a1.031 1.031 0 1 0 0 2.063 1.031 1.031 0 0 0 0-2.063zm12.114 15.813 4.125 4.125h2.667v-2.667l-8.373-8.373.37-.677.16-.308a9.227 9.227 0 0 0 .96-3.762l.008-.37-.004-.268a9.282 9.282 0 0 0-9.009-9.009l-.268-.004-.27.004a9.282 9.282 0 0 0-9.008 9.009l-.004.268.004.27a9.281 9.281 0 0 0 9.278 9.012 9.24 9.24 0 0 0 4.029-.918l.301-.152 1.513-.8v4.62z"/></svg>