<svg viewBox="0 0 32 32" xmlns="http://www.w3.org/2000/svg" aria-hidden="true" style="display:block;height:24px;width:24px;fill:currentcolor"><path d="M16 0c5.909 0 11 5.275 11 11 0 4.848-3.228 9.268-9.547 13.278L19.65 27.2a1.125 1.125 0 0 1-.9 1.801H17v3h-2v-3h-1.75a1.125 1.125 0 0 1-.901-1.799l2.14-2.862C8.212 20.918 5 16.457 5 11 5 4.925 9.925 0 16 0zm-.005 25.667L14.997 27h2zM16 2a9 9 0 0 0-9 9c0 4.606 2.722 8.428 8.309 11.508l.376.204.272.142.311-.192c5.61-3.533 8.474-7.246 8.715-11.126l.013-.27L25 11c0-4.636-4.212-9-9-9z"/></svg>