<svg fill="#000000" xmlns="http://www.w3.org/2000/svg"  viewBox="0 0 50 50" width="24px" height="24px"><path d="M 9 4 C 6.2504839 4 4 6.2504839 4 9 L 4 41 C 4 43.749516 6.2504839 46 9 46 L 41 46 C 43.749516 46 46 43.749516 46 41 L 46 9 C 46 6.2504839 43.749516 4 41 4 L 9 4 z M 9 6 L 41 6 C 42.668484 6 44 7.3315161 44 9 L 44 41 C 44 42.668484 42.668484 44 41 44 L 9 44 C 7.3315161 44 6 42.668484 6 41 L 6 9 C 6 7.3315161 7.3315161 6 9 6 z M 26 9 C 23.802706 9 22 10.802706 22 13 C 22 15.197294 23.802706 17 26 17 C 28.197294 17 30 15.197294 30 13 C 30 10.802706 28.197294 9 26 9 z M 26 11 C 27.116414 11 28 11.883586 28 13 C 28 14.116414 27.116414 15 26 15 C 24.883586 15 24 14.116414 24 13 C 24 11.883586 24.883586 11 26 11 z M 26 18 A 1.0001 1.0001 0 0 0 25.316406 18.285156 C 24.038801 18.628772 23 19.620609 23 21 L 23 30 C 23 31.64497 24.35503 33 26 33 L 31.650391 33 L 34.158203 37.773438 L 34.128906 37.712891 C 34.571252 38.71378 35.6187 39.097949 36.658203 39.003906 A 1.0001 1.0001 0 0 0 37.021484 39.072266 L 37.005859 38.996094 C 37.147692 38.961974 37.288203 39.049071 37.425781 38.988281 C 38.678333 38.434713 39.254359 36.941142 38.701172 35.689453 A 1.0001 1.0001 0 0 0 38.675781 35.634766 L 35.623047 29.732422 L 35.648438 29.787109 C 35.169441 28.703349 34.089395 28 32.904297 28 L 29 28 L 29 27 L 33.5 27 C 34.593765 27 35.368597 26.197398 35.703125 25.208984 A 1.0001 1.0001 0 0 0 36 24.5 C 36 23.130937 34.869063 22 33.5 22 L 29 22 L 29 21 C 29 19.620609 27.961199 18.628772 26.683594 18.285156 A 1.0001 1.0001 0 0 0 26 18 z M 37.425781 38.988281 L 37.021484 39.072266 A 1.0001 1.0001 0 0 0 37.425781 38.988281 z M 26 20 C 26.56503 20 27 20.43497 27 21 L 27 23 A 1.0001 1.0001 0 0 0 28 24 L 33.5 24 C 33.786937 24 34 24.213063 34 24.5 C 34 24.786937 33.786937 25 33.5 25 L 28 25 A 1.0001 1.0001 0 0 0 27 26 L 27 29 A 1.0001 1.0001 0 0 0 28 30 L 32.904297 30 C 33.303199 30 33.659318 30.231451 33.820312 30.595703 A 1.0001 1.0001 0 0 0 33.845703 30.650391 L 36.871094 36.501953 C 36.984448 36.764818 36.878993 37.042487 36.617188 37.158203 C 36.352877 37.275016 36.073463 37.167703 35.957031 36.904297 A 1.0001 1.0001 0 0 0 35.927734 36.84375 L 33.138672 31.535156 A 1.0001 1.0001 0 0 0 32.253906 31 L 26 31 C 25.43497 31 25 30.56503 25 30 L 25 21 C 25 20.43497 25.43497 20 26 20 z M 20.988281 22.021484 A 1.0001 1.0001 0 0 0 20.917969 22.025391 C 15.94473 22.374025 12 26.487795 12 31.5 C 12 36.742107 16.319836 41 21.607422 41 C 25.430417 41 28.749064 38.784277 30.292969 35.564453 A 1.0001 1.0001 0 1 0 28.490234 34.699219 C 27.274139 37.235395 24.658426 39 21.607422 39 C 17.387008 39 14 35.647893 14 31.5 C 14 27.534205 17.10183 24.296903 21.058594 24.019531 A 1.0001 1.0001 0 0 0 20.988281 22.021484 z"/></svg>